<?xml version="1.0" encoding="UTF-8"?>
<svg version="1.1" xmlns="http://www.w3.org/2000/svg" width="256" height="256">
<path d="M0 0 C1.63745471 -0.00407396 3.27490667 -0.00942044 4.91235352 -0.01593018 C9.32560067 -0.0295116 13.73863551 -0.02434338 18.15188599 -0.01479292 C22.79071587 -0.00714843 27.4295287 -0.01425514 32.06835938 -0.01895142 C39.85550163 -0.0243951 47.64255827 -0.01725389 55.4296875 -0.00292969 C64.40702934 0.01339414 73.38416671 0.00810465 82.3615036 -0.0084089 C90.09691862 -0.02206342 97.83227243 -0.02392411 105.56769562 -0.0160929 C110.17561693 -0.01143812 114.78344243 -0.01073064 119.39135742 -0.02070236 C123.72534664 -0.02942774 128.05907461 -0.02324943 132.39303589 -0.00601959 C133.97475757 -0.00208429 135.5565016 -0.00313747 137.13821411 -0.00980759 C146.29790325 -0.04484552 154.60822472 0.6781651 163.40625 3.38818359 C164.56125 3.69755859 165.71625 4.00693359 166.90625 4.32568359 C169.79364598 5.55282689 171.2764812 7.11643021 173.40625 9.38818359 C174.1075 9.71818359 174.80875 10.04818359 175.53125 10.38818359 C177.93235528 11.66877307 178.23839952 12.97949198 179.40625 15.38818359 C181.34680478 17.02552669 183.13838843 18.25425281 185.40625 19.38818359 C185.74033192 20.72132956 186.0734353 22.05472071 186.40625 23.38818359 C187.81549345 26.28790507 189.28400223 29.14235638 190.79101562 31.99169922 C194.12898056 38.46297585 195.6536328 44.25050376 195.67367554 51.52714539 C195.67820665 52.21069637 195.68273776 52.89424735 195.68740618 53.59851199 C195.69998449 55.87051386 195.6984341 58.14227399 195.69677734 60.41430664 C195.70276682 62.05102341 195.70957333 63.68773736 195.71713257 65.32444763 C195.73475983 69.75859692 195.73948664 74.19266895 195.74076414 78.62684989 C195.74218847 81.40178776 195.74646346 84.17670616 195.75175858 86.95163918 C195.77024997 96.64591334 195.77843055 106.34013261 195.77685547 116.03442383 C195.7756552 125.04861413 195.79673727 134.06256455 195.8283428 143.07669419 C195.85456265 150.83323334 195.86522033 158.58969445 195.86394465 166.34627753 C195.86343658 170.97109246 195.86903352 175.59569421 195.89030075 180.22046471 C195.90977894 184.57494368 195.90974272 188.9290083 195.89526749 193.28350258 C195.89318992 194.87329342 195.8978169 196.46311084 195.9099884 198.05285645 C195.99470539 209.89371477 194.32072516 220.05065908 188.21875 230.45068359 C186.65585652 233.14519109 185.39361278 235.42609526 184.40625 238.38818359 C183.07291667 239.05485026 181.73958333 239.72151693 180.40625 240.38818359 C178.7689069 242.32873838 177.54018079 244.12032202 176.40625 246.38818359 C175.41625 246.71818359 174.42625 247.04818359 173.40625 247.38818359 C172.808125 248.02755859 172.21 248.66693359 171.59375 249.32568359 C168.65630905 252.09527077 165.47338956 253.38818359 161.40625 253.38818359 C161.07625 254.04818359 160.74625 254.70818359 160.40625 255.38818359 C152.07276793 256.83305776 143.58562854 256.54372802 135.15307617 256.54931641 C133.51606639 256.55395211 131.87905767 256.55897776 130.24205017 256.56436157 C125.81629909 256.57741232 121.39056312 256.58391575 116.96479583 256.58837223 C114.1942085 256.59131391 111.42362521 256.59542066 108.65303993 256.5998764 C99.9680436 256.61352999 91.28305661 256.62320795 82.5980503 256.62707829 C72.60232148 256.63155852 62.60672944 256.64911378 52.6110422 256.67807889 C44.86296379 256.69974534 37.11492375 256.70978516 29.36681539 256.71111941 C24.74876936 256.71216358 20.13085227 256.71798871 15.51283836 256.73593903 C11.16660557 256.75250662 6.82059751 256.75453341 2.47434425 256.74580002 C0.88777689 256.74503436 -0.698803 256.74930947 -2.28533936 256.75925827 C-11.45561722 256.8133488 -19.75607719 256.11646777 -28.59375 253.38818359 C-29.74875 253.07880859 -30.90375 252.76943359 -32.09375 252.45068359 C-34.98114598 251.2235403 -36.4639812 249.65993698 -38.59375 247.38818359 C-39.295 247.05818359 -39.99625 246.72818359 -40.71875 246.38818359 C-43.11985528 245.10759411 -43.42589952 243.79687521 -44.59375 241.38818359 C-46.53430478 239.75084049 -48.32588843 238.52211438 -50.59375 237.38818359 C-50.92783192 236.05503763 -51.2609353 234.72164648 -51.59375 233.38818359 C-53.00299345 230.48846212 -54.47150223 227.63401081 -55.97851562 224.78466797 C-59.31648056 218.31339134 -60.8411328 212.52586343 -60.86117554 205.2492218 C-60.86570665 204.56567082 -60.87023776 203.88211984 -60.87490618 203.17785519 C-60.88748449 200.90585333 -60.8859341 198.6340932 -60.88427734 196.36206055 C-60.89026682 194.72534378 -60.89707333 193.08862983 -60.90463257 191.45191956 C-60.92225983 187.01777027 -60.92698664 182.58369824 -60.92826414 178.1495173 C-60.92968847 175.37457943 -60.93396346 172.59966103 -60.93925858 169.82472801 C-60.95774997 160.13045384 -60.96593055 150.43623458 -60.96435547 140.74194336 C-60.9631552 131.72775306 -60.98423727 122.71380264 -61.0158428 113.699673 C-61.04206265 105.94313384 -61.05272033 98.18667274 -61.05144465 90.43008965 C-61.05093658 85.80527473 -61.05653352 81.18067297 -61.07780075 76.55590248 C-61.09727894 72.2014235 -61.09724272 67.84735889 -61.08276749 63.49286461 C-61.08068992 61.90307377 -61.0853169 60.31325634 -61.0974884 58.72351074 C-61.18220539 46.88265241 -59.50822516 36.7257081 -53.40625 26.32568359 C-51.84335652 23.6311761 -50.58111278 21.35027192 -49.59375 18.38818359 C-48.26041667 17.72151693 -46.92708333 17.05485026 -45.59375 16.38818359 C-43.9564069 14.44762881 -42.72768079 12.65604517 -41.59375 10.38818359 C-40.60375 10.05818359 -39.61375 9.72818359 -38.59375 9.38818359 C-37.6965625 8.42912109 -37.6965625 8.42912109 -36.78125 7.45068359 C-34.06370938 4.88843101 -32.21760671 4.3588595 -28.59375 3.38818359 C-27.41395569 3.02477654 -27.41395569 3.02477654 -26.21032715 2.65402794 C-17.4667862 0.15373039 -9.01235859 -0.03800531 0 0 Z " fill="#D3D3D1" transform="translate(60.59375,-0.38818359375)"/>
<path d="M0 0 C1.03180389 -0.00700928 2.06360779 -0.01401855 3.12667847 -0.02124023 C6.52426374 -0.03878927 9.92101032 -0.02720697 13.31860352 -0.01367188 C15.68840189 -0.01636787 18.05819918 -0.02025118 20.42799377 -0.02526855 C25.39009147 -0.03115962 30.35190073 -0.02261364 35.31396484 -0.00390625 C41.66369081 0.01887012 48.01273997 0.00576537 54.36244106 -0.01819611 C59.25504115 -0.03267502 64.14748176 -0.02803817 69.04008675 -0.01768494 C71.38077945 -0.01502281 73.72148679 -0.01826923 76.0621624 -0.02760315 C79.33870464 -0.03780139 82.61416313 -0.02222001 85.890625 0 C87.33177925 -0.01214539 87.33177925 -0.01214539 88.80204773 -0.02453613 C95.71863871 0.0620314 100.93521981 1.18051582 106.09031391 5.99279022 C111.18343634 12.49957856 110.21127519 20.88840467 110.15698242 28.72070312 C110.16376499 30.3640642 110.1726717 32.00741766 110.18353271 33.65075684 C110.20625693 38.09715033 110.19751838 42.54296142 110.18163729 46.98936462 C110.16894251 51.65145388 110.18072832 56.31349463 110.18856812 60.97558594 C110.19765428 68.80347611 110.18570393 76.6311301 110.16186523 84.45898438 C110.1346559 93.4977931 110.1434708 102.53603785 110.17099726 111.57483292 C110.19371682 119.34750304 110.19687452 127.12000377 110.18380392 134.89269638 C110.17602503 139.52967315 110.17492467 144.16638517 110.19148636 148.80334473 C110.20597342 153.16370427 110.19583267 157.52333958 110.16701508 161.88362122 C110.16042678 163.47991231 110.16226323 165.07626479 110.1733284 166.67253113 C110.26789239 181.70495695 110.26789239 181.70495695 106.0903759 187.04242802 C100.10029828 192.63370427 93.80966932 193.10479441 85.90649414 193.05102539 C84.87454422 193.05964096 83.8425943 193.06825653 82.77937317 193.07713318 C79.38724282 193.09973215 75.99594261 193.09306556 72.60375977 193.08398438 C70.23538977 193.08922228 67.86702186 193.09549938 65.49865723 193.10276794 C60.54254314 193.11316074 55.58671639 193.10862598 50.63061523 193.09399414 C44.28866341 193.07680066 37.94761712 193.10031564 31.6057663 193.13548374 C26.71744822 193.15747277 21.82934636 193.15601263 16.94099426 193.14771843 C14.60308336 193.1468999 12.26515642 193.15374444 9.92729187 193.16848946 C6.6554743 193.18596404 3.38527857 193.17136723 0.11352539 193.14868164 C-0.84567307 193.16037384 -1.80487152 193.17206604 -2.7931366 193.18411255 C-9.21587213 193.09378413 -13.64032302 191.84827761 -18.48999023 187.51757812 C-24.20942697 181.00922672 -23.06045193 172.63105731 -23.0234375 164.42797852 C-23.0305006 162.78476692 -23.03924726 161.14156182 -23.04954529 159.49836731 C-23.07200553 155.04786634 -23.06910745 150.59772156 -23.06022382 146.14718556 C-23.05510572 142.42702757 -23.06241317 138.70693602 -23.06969589 134.98678488 C-23.08668427 126.20833436 -23.08313983 117.43005771 -23.06640625 108.65161133 C-23.04948497 99.60545311 -23.06532188 90.55977745 -23.09762913 81.51367193 C-23.1243478 73.73678845 -23.13159491 65.96005497 -23.12311405 58.1831302 C-23.11819158 53.5427701 -23.12036354 48.9027003 -23.14090157 44.26237679 C-23.1592946 39.89795081 -23.15325614 35.53421746 -23.12870216 31.16982841 C-23.12370574 29.57191689 -23.12715366 27.97395226 -23.13985062 26.37608337 C-23.24941344 11.39843678 -23.24941344 11.39843678 -19.00495148 5.99223232 C-13.23411857 0.37493814 -7.84954528 -0.06601328 0 0 Z " fill="#1E1D1C" transform="translate(84.489990234375,31.482421875)"/>
<path d="M0 0 C0.95000885 -0.0087616 1.9000177 -0.01752319 2.8788147 -0.02655029 C6.01993445 -0.04856179 9.15964712 -0.03398486 12.30078125 -0.01708984 C14.48266877 -0.02045746 16.66455446 -0.02530962 18.84643555 -0.03158569 C23.41961525 -0.03895942 27.99230672 -0.02823497 32.56542969 -0.00488281 C38.43040324 0.02360473 44.29423286 0.00720351 50.15916443 -0.02274513 C54.66476069 -0.04080428 59.17008529 -0.03506632 63.6756897 -0.02210617 C65.83826838 -0.01876836 68.00087165 -0.02287236 70.16342163 -0.03450394 C73.18513407 -0.04718944 76.20498863 -0.02786691 79.2265625 0 C80.12226959 -0.01012115 81.01797668 -0.02024231 81.94082642 -0.03067017 C87.97872964 0.07260364 87.97872964 0.07260364 91.16958618 2.96083069 C93.05687469 6.47232351 93.15343826 9.54390543 93.07421875 13.43212891 C93.07330231 14.170233 93.07238586 14.9083371 93.07144165 15.66880798 C93.06542152 17.22287461 93.04972316 18.77693049 93.02490234 20.33081055 C92.98834219 22.70551417 92.98388365 25.07865723 92.984375 27.45361328 C92.97454451 28.9672986 92.9628878 30.48097339 92.94921875 31.99462891 C92.9469931 32.70200699 92.94476746 33.40938507 92.94247437 34.13819885 C92.87267959 37.77168606 92.74845881 40.63278834 90.61328125 43.64697266 C86.63707482 46.29777694 83.15848046 45.95749053 78.53955078 45.96923828 C77.61080139 45.97916809 76.682052 45.9890979 75.72515869 45.99932861 C72.64877372 46.02856983 69.57259493 46.04217453 66.49609375 46.05322266 C64.3600158 46.06472499 62.22393792 46.07624047 60.08786011 46.08776855 C55.60722897 46.10878741 51.1266696 46.12047369 46.64599609 46.12744141 C40.90326218 46.13841634 35.16147543 46.18648118 29.41903877 46.24338531 C25.00610578 46.28062318 20.5934014 46.29104835 16.18032455 46.29411316 C14.06317842 46.30016992 11.94603648 46.31623987 9.82904434 46.34248352 C6.86722872 46.37658165 3.90773281 46.37285393 0.94580078 46.35986328 C-0.3666713 46.38750763 -0.3666713 46.38750763 -1.70565796 46.41571045 C-7.47092017 46.33646138 -7.47092017 46.33646138 -10.05047894 44.39435673 C-13.53747611 40.45463114 -14.11198029 36.86523324 -14.015625 31.79931641 C-14.01803696 31.06499893 -14.02044891 30.33068146 -14.02293396 29.57411194 C-14.02195934 28.03022836 -14.0086578 26.48630816 -13.98364258 24.94262695 C-13.9492557 22.58700405 -13.963018 20.23512261 -13.98242188 17.87939453 C-13.97552434 16.37351929 -13.96585277 14.86765366 -13.953125 13.36181641 C-13.95808487 12.66273666 -13.96304474 11.96365692 -13.96815491 11.24339294 C-13.89125636 8.033875 -13.46778883 5.79739041 -11.94004822 2.96281433 C-8.16620291 -0.46002175 -4.93663403 -0.05578212 0 0 Z " fill="#4F4F4F" transform="translate(88.38671875,44.35302734375)"/>
<path d="M0 0 C1.47700882 -0.01429802 1.47700882 -0.01429802 2.9838562 -0.02888489 C4.57763596 -0.02751778 4.57763596 -0.02751778 6.20361328 -0.02612305 C7.84416183 -0.03255074 7.84416183 -0.03255074 9.51785278 -0.03910828 C11.83285835 -0.04485458 14.14788198 -0.04534964 16.46289062 -0.04101562 C20.00308122 -0.03786037 23.54243258 -0.0612956 27.08251953 -0.08666992 C29.33121639 -0.08894336 31.5799155 -0.08964621 33.82861328 -0.08862305 C34.88708466 -0.09783279 35.94555603 -0.10704254 37.03610229 -0.11653137 C46.20698165 -0.05888776 46.20698165 -0.05888776 50.14892578 3.2746582 C52.54325292 5.92101978 54.04430463 7.86227267 54.31298828 11.48950195 C53.96241176 16.50608497 52.90914353 19.72931004 49.14892578 23.2746582 C46.10099537 25.12410947 43.82076145 25.53002376 40.27612305 25.54931641 C39.31154678 25.55884842 38.34697052 25.56838043 37.35316467 25.57820129 C36.3176799 25.57728989 35.28219513 25.57637848 34.21533203 25.57543945 C33.14524399 25.57972458 32.07515594 25.5840097 30.97264099 25.58842468 C28.71069038 25.59416492 26.44872131 25.59467051 24.18676758 25.59033203 C20.72786943 25.58717322 17.26982751 25.61063186 13.81103516 25.63598633 C11.61246853 25.63825947 9.4138996 25.63896275 7.21533203 25.63793945 C6.18187149 25.6471492 5.14841095 25.65635895 4.08363342 25.66584778 C-4.95821514 25.60764986 -4.95821514 25.60764986 -8.85107422 22.2746582 C-11.87507704 17.79079195 -12.81973444 13.56017378 -11.85107422 8.2746582 C-8.88709004 2.75551524 -6.36027831 0.03381908 0 0 Z " fill="#D3D3D1" transform="translate(86.85107421875,185.725341796875)"/>
<path d="M0 0 C4.36350222 2.22291622 7.09544338 4.45022584 9 9 C9.54700764 13.29791716 9.31502266 15.41495791 7.25 19.25 C4.08217196 23.12178983 2.00499066 24.99406827 -2.9375 25.875 C-6.85089093 26.23076281 -8.88341448 25.51058278 -12 23 C-15.68523239 19.72423787 -16.8424755 17.66975966 -17.3125 12.6875 C-16.93790854 8.26732079 -15.83614013 6.37270719 -13 3 C-9.05487821 -0.28760149 -4.99255392 -0.88103893 0 0 Z " fill="#D0D0CE" transform="translate(132,145)"/>
<path d="M0 0 C3.80285865 2.0090574 7.09334467 4.08076405 9 8 C9.73092146 12.71940644 9.4615237 16.0769526 7.3125 20.375 C3.92666702 24.21837798 1.68570325 25.78545595 -3.4375 26.4375 C-8.61887516 25.80119077 -11.51315254 23.73465537 -14.875 19.8125 C-16.47986743 15.80033143 -16.81675149 12.25609951 -16 8 C-12.42322176 1.53165008 -7.25859422 -1.12728168 0 0 Z " fill="#F29309" transform="translate(172,145)"/>
<path d="M0 0 C3.92670595 2.11438013 6.63262715 4.23125126 9 8 C9.79828193 12.03132375 9.90440654 16.17629956 8.05078125 19.9140625 C4.67330736 24.23978616 1.34237809 25.70097301 -3.9375 26.375 C-8.80799943 25.77861231 -11.72862772 23.48326766 -14.875 19.8125 C-16.49070217 15.77324458 -16.91986746 12.27811376 -16 8 C-12.04454329 1.3080638 -7.79335888 -0.66045414 0 0 Z " fill="#D0D0CE" transform="translate(91,145)"/>
<path d="M0 0 C3.88690598 1.99898022 6.39363397 4.9540594 8 9 C8.23974502 13.46724889 7.53895094 17.09533235 5.25 20.9375 C1.78218186 24.1163333 -0.7879917 24.86778091 -5.4375 25.375 C-9.77324712 24.91860557 -11.71260746 23.83911174 -15 21 C-17.64201025 16.94891762 -18.70236884 13.8162435 -18 9 C-13.6180227 1.01854135 -8.94638556 -1.52398997 0 0 Z " fill="#D1D1CF" transform="translate(133,105)"/>
<path d="M0 0 C3.85544798 1.99657127 5.59805092 3.39707638 8 7 C8.77846277 11.28154521 8.96725845 15.3473529 6.7265625 19.17578125 C2.06458686 24.66781596 2.06458686 24.66781596 -1.91796875 25.30859375 C-6.62920205 25.57618531 -9.33499573 25.24366823 -13 22.125 C-16.14820873 19.10796663 -17.17137232 17.11753043 -17.3125 12.75 C-17.26781479 8.12508029 -16.04490209 5.5668853 -13 2 C-8.74748617 -0.83500922 -4.99342406 -0.64456329 0 0 Z " fill="#D1D1D0" transform="translate(92,105)"/>
<path d="M0 0 C4.09507797 2.08476697 6.2954921 3.76197354 8 8 C8.57903708 12.20365883 8.42411894 15.91614049 6.875 19.875 C3.43474167 23.77395944 0.14701021 24.8361414 -4.9375 25.5625 C-9.24931245 25.41324495 -11.56515646 23.45355725 -14.65234375 20.60546875 C-17.4753142 17.24245178 -17.33272251 13.40169215 -17.28515625 9.22265625 C-16.85531195 5.872226 -15.44879327 4.24472716 -13 2 C-8.7436651 -0.51996397 -4.83839488 -0.68760551 0 0 Z " fill="#F89405" transform="translate(173,105)"/>
<path d="M0 0 C3.12813702 2.10967381 4.31095599 3.2946653 5.6875 6.8125 C6.44746573 10.89635624 6.615739 14.28530556 4.41015625 17.9140625 C-0.27831805 23.485208 -0.27831805 23.485208 -4.23046875 24.12109375 C-8.90300541 24.3864874 -11.65196857 24.06181097 -15.3125 21 C-18.62771019 17.89199045 -19.2484821 15.59351841 -19.625 11 C-19.56872352 6.6345527 -18.1766392 4.15399573 -15.3125 0.8125 C-10.87719489 -2.67238259 -4.96532322 -1.78002153 0 0 Z " fill="#F59409" transform="translate(175.3125,187.1875)"/>
<path d="M0 0 C3.125 2 3.125 2 5 4 C4.67 4.66 4.34 5.32 4 6 C3.360625 5.505 2.72125 5.01 2.0625 4.5 C-2.04974818 2.48583763 -5.49506413 2.38680546 -10 3 C-13.63467079 4.62400184 -14.77408696 5.66113044 -17 9 C-17.83464938 14.69079125 -17.04192948 19.0568646 -14 24 C-14.66 24.33 -15.32 24.66 -16 25 C-18 22 -18 22 -18 19 C-18.66 19 -19.32 19 -20 19 C-22.1519437 15.77208445 -22.20086443 14.71599191 -22 11 C-21.01 11 -20.02 11 -19 11 C-18.9175 10.443125 -18.835 9.88625 -18.75 9.3125 C-17.56436864 5.65680329 -15.45891828 2.89779586 -12.171875 0.875 C-8.22468855 -0.71523339 -4.17342337 -0.57982942 0 0 Z " fill="#392304" transform="translate(174,103)"/>
<path d="M0 0 C1.12921875 -0.02513672 1.12921875 -0.02513672 2.28125 -0.05078125 C4.5 0.3125 4.5 0.3125 8.5 3.3125 C1.57 2.8175 1.57 2.8175 -5.5 2.3125 C-6.9506631 5.21382619 -8.31727355 8.09832005 -9.625 11.0625 C-9.97820312 11.86171875 -10.33140625 12.6609375 -10.6953125 13.484375 C-10.96085938 14.08765625 -11.22640625 14.6909375 -11.5 15.3125 C-10.84 15.6425 -10.18 15.9725 -9.5 16.3125 C-10.16 17.3025 -10.82 18.2925 -11.5 19.3125 C-12.85223785 15.25578645 -13.04418363 11.55415046 -12.5 7.3125 C-9.44983712 2.19258374 -5.92642904 0.03044398 0 0 Z " fill="#E0911D" transform="translate(168.5,104.6875)"/>
<path d="M0 0 C0.33 0.99 0.66 1.98 1 3 C-0.875 5.5625 -0.875 5.5625 -3 8 C-3.33 8.66 -3.66 9.32 -4 10 C-4.99 10.33 -5.98 10.66 -7 11 C-8.35308313 12.31328657 -9.68870078 13.64499081 -11 15 C-11.33 15 -11.66 15 -12 15 C-12 13.02 -12 11.04 -12 9 C-11.113125 8.608125 -10.22625 8.21625 -9.3125 7.8125 C-5.86889745 5.92826464 -3.64535227 3.87209675 -1 1 C-0.67 0.67 -0.34 0.34 0 0 Z " fill="#DDDDDB" transform="translate(241,236)"/>
<path d="M0 0 C4.455 0.99 4.455 0.99 9 2 C8.67 2.99 8.34 3.98 8 5 C4.7 5.33 1.4 5.66 -2 6 C-2 5.01 -2 4.02 -2 3 C-1.01 3 -0.02 3 1 3 C0.67 2.01 0.34 1.02 0 0 Z " fill="#24190F" transform="translate(162,169)"/>
<path d="M0 0 C0.99 0 1.98 0 3 0 C3.268125 1.03125 3.53625 2.0625 3.8125 3.125 C4.80998897 6.6485042 6.2661898 9.76880827 8 13 C7.01 13.495 7.01 13.495 6 14 C4 11 4 11 4 8 C3.34 8 2.68 8 2 8 C-0.1519437 4.77208445 -0.20086443 3.71599191 0 0 Z " fill="#2B200A" transform="translate(152,114)"/>
<path d="M0 0 C0.66 0 1.32 0 2 0 C2.1953125 1.98567708 2.390625 3.97135417 2.5859375 5.95703125 C2.92665391 8.29988142 2.92665391 8.29988142 5 11 C3.0625 10.6875 3.0625 10.6875 1 10 C-0.1577506 6.52674819 -0.06866652 3.63932552 0 0 Z " fill="#BEBEBD" transform="translate(115,154)"/>
<path d="M0 0 C2.31 1.65 4.62 3.3 7 5 C3 6 3 6 0 5 C0 3.35 0 1.7 0 0 Z " fill="#DCDCDA" transform="translate(18,240)"/>
<path d="M0 0 C1.65 0.99 3.3 1.98 5 3 C4.34 4.32 3.68 5.64 3 7 C1.68 6.01 0.36 5.02 -1 4 C-0.67 2.68 -0.34 1.36 0 0 Z " fill="#DCDCDA" transform="translate(229,5)"/>
<path d="M0 0 C0.33 0.99 0.66 1.98 1 3 C-0.9375 6.1875 -0.9375 6.1875 -3 9 C-3.75 7.3125 -3.75 7.3125 -4 5 C-2.0625 2.25 -2.0625 2.25 0 0 Z " fill="#DADAD8" transform="translate(11,21)"/>
<path d="M0 0 C3 1 3 1 3 1 Z " fill="#EAEAE8" transform="translate(216,255)"/>
<path d="M0 0 C3 1 3 1 3 1 Z " fill="#E6E6E4" transform="translate(37,255)"/>
<path d="" fill="#8F908E" transform="translate(0,0)"/>
<path d="" fill="#8F8F8D" transform="translate(0,0)"/>
<path d="" fill="#FDFDFB" transform="translate(0,0)"/>
<path d="" fill="#FCFCFA" transform="translate(0,0)"/>
<path d="" fill="#FCFDFA" transform="translate(0,0)"/>
<path d="" fill="#FCFCFB" transform="translate(0,0)"/>
<path d="" fill="#8E8F8D" transform="translate(0,0)"/>
<path d="" fill="#8D8E8C" transform="translate(0,0)"/>
<path d="M0 0 C3 1 3 1 3 1 Z " fill="#E6E6E3" transform="translate(216,0)"/>
<path d="M0 0 C3 1 3 1 3 1 Z " fill="#E8E8E6" transform="translate(37,0)"/>
<path d="M0 0 C2 1 2 1 2 1 Z " fill="#F8F8F6" transform="translate(35,254)"/>
<path d="M0 0 C2 1 2 1 2 1 Z " fill="#BFBFBD" transform="translate(222,253)"/>
<path d="M0 0 C2 1 2 1 2 1 Z " fill="#C3C4C2" transform="translate(32,253)"/>
<path d="" fill="#F9F9F7" transform="translate(0,0)"/>
<path d="" fill="#FCFDFA" transform="translate(0,0)"/>
<path d="" fill="#7F7F7F" transform="translate(0,0)"/>
<path d="" fill="#FCFCFA" transform="translate(0,0)"/>
<path d="" fill="#FCFCFA" transform="translate(0,0)"/>
<path d="" fill="#F9F9F7" transform="translate(0,0)"/>
<path d="" fill="#FCFCFB" transform="translate(0,0)"/>
<path d="" fill="#FDFDFB" transform="translate(0,0)"/>
<path d="" fill="#FDFDFB" transform="translate(0,0)"/>
<path d="" fill="#FEFEFD" transform="translate(0,0)"/>
<path d="" fill="#FBFBF9" transform="translate(0,0)"/>
<path d="" fill="#F7F7F7" transform="translate(0,0)"/>
<path d="" fill="#FDFCFD" transform="translate(0,0)"/>
<path d="" fill="#FDFDFD" transform="translate(0,0)"/>
<path d="" fill="#FBFBFB" transform="translate(0,0)"/>
<path d="" fill="#7F7F7F" transform="translate(0,0)"/>
<path d="" fill="#848484" transform="translate(0,0)"/>
<path d="" fill="#FFFFFF" transform="translate(0,0)"/>
<path d="" fill="#FCFCFB" transform="translate(0,0)"/>
<path d="M0 0 C2 1 2 1 2 1 Z " fill="#BFBFBE" transform="translate(222,2)"/>
<path d="M0 0 C2 1 2 1 2 1 Z " fill="#C0C0BE" transform="translate(32,2)"/>
<path d="M0 0 C2 1 2 1 2 1 Z " fill="#FEFEFC" transform="translate(219,1)"/>
<path d="M0 0 C2 1 2 1 2 1 Z " fill="#FFFFFF" transform="translate(35,1)"/>
<path d="" fill="#FEFEFC" transform="translate(0,0)"/>
<path d="" fill="#FAFBF8" transform="translate(0,0)"/>
<path d="" fill="#FFFFFF" transform="translate(0,0)"/>
<path d="" fill="#FFFFFE" transform="translate(0,0)"/>
<path d="" fill="#B3B4B1" transform="translate(0,0)"/>
<path d="" fill="#ADAEAB" transform="translate(0,0)"/>
<path d="" fill="#AAAAA8" transform="translate(0,0)"/>
<path d="" fill="#AAAAA8" transform="translate(0,0)"/>
<path d="" fill="#AAAAA8" transform="translate(0,0)"/>
<path d="" fill="#AAAAA8" transform="translate(0,0)"/>
<path d="" fill="#F9FAF7" transform="translate(0,0)"/>
<path d="" fill="#FFFFFF" transform="translate(0,0)"/>
<path d="" fill="#FFFFFF" transform="translate(0,0)"/>
<path d="" fill="#FEFEFC" transform="translate(0,0)"/>
<path d="" fill="#FFFFFF" transform="translate(0,0)"/>
<path d="" fill="#FFFFFE" transform="translate(0,0)"/>
<path d="" fill="#B0B0AE" transform="translate(0,0)"/>
<path d="" fill="#AAAAA8" transform="translate(0,0)"/>
<path d="" fill="#B2B3B0" transform="translate(0,0)"/>
<path d="" fill="#9E9F9C" transform="translate(0,0)"/>
<path d="" fill="#FFFFFF" transform="translate(0,0)"/>
<path d="" fill="#A9A9A9" transform="translate(0,0)"/>
<path d="" fill="#A5A6A3" transform="translate(0,0)"/>
<path d="" fill="#B1B1B1" transform="translate(0,0)"/>
<path d="" fill="#ABACA9" transform="translate(0,0)"/>
<path d="" fill="#FFFFFF" transform="translate(0,0)"/>
<path d="" fill="#FFFFFF" transform="translate(0,0)"/>
<path d="" fill="#FCFBFC" transform="translate(0,0)"/>
<path d="" fill="#F7F7F7" transform="translate(0,0)"/>
<path d="" fill="#FAFAFA" transform="translate(0,0)"/>
<path d="" fill="#FDFDFD" transform="translate(0,0)"/>
<path d="" fill="#ABACA9" transform="translate(0,0)"/>
<path d="" fill="#AAAAAA" transform="translate(0,0)"/>
<path d="" fill="#ABACA9" transform="translate(0,0)"/>
<path d="" fill="#AAAAAA" transform="translate(0,0)"/>
<path d="" fill="#AAAAA8" transform="translate(0,0)"/>
<path d="" fill="#B0B0B0" transform="translate(0,0)"/>
<path d="" fill="#FDFDFB" transform="translate(0,0)"/>
<path d="" fill="#FEFEFE" transform="translate(0,0)"/>
<path d="" fill="#FFFFFF" transform="translate(0,0)"/>
<path d="" fill="#FCFBFC" transform="translate(0,0)"/>
</svg>
